<?xml version="1.0" standalone="no"?>
<!DOCTYPE svg PUBLIC "-//W3C//DTD SVG 20010904//EN"
 "http://www.w3.org/TR/2001/REC-SVG-20010904/DTD/svg10.dtd">
<svg version="1.0" xmlns="http://www.w3.org/2000/svg"
 width="350.000000pt" height="350.000000pt" viewBox="0 0 350.000000 350.000000"
 preserveAspectRatio="xMidYMid meet">

<g transform="translate(0.000000,350.000000) scale(0.100000,-0.100000)"
fill="#000000" stroke="none">
<path d="M1023 2377 c-496 -495 -803 -810 -803 -821 0 -21 213 -242 242 -252
10 -3 45 8 80 25 121 61 274 34 352 -62 44 -55 55 -77 66 -137 12 -62 -1 -137
-36 -203 -14 -27 -22 -56 -19 -66 8 -28 230 -241 250 -241 10 0 74 55 142 122
296 292 1466 1466 1474 1479 5 8 9 20 9 28 0 17 -216 239 -240 246 -10 3 -46
-8 -81 -25 -204 -96 -418 34 -419 256 0 59 5 81 31 132 17 35 28 70 25 80 -10
29 -231 242 -252 242 -12 0 -320 -302 -821 -803z m1032 73 c265 -265 298 -302
298 -330 0 -28 -52 -84 -519 -551 -469 -469 -524 -520 -553 -521 -30 -1 -58
24 -332 298 -278 277 -299 301 -299 334 0 32 32 67 508 543 279 280 520 515
536 522 16 7 36 10 46 8 9 -2 151 -139 315 -303z"/>
<path d="M1695 2671 c-48 -30 -963 -953 -974 -982 -7 -19 -6 -34 3 -50 14 -28
488 -504 517 -519 10 -6 29 -8 42 -5 13 4 243 226 512 495 464 464 489 491
489 525 0 33 -16 52 -244 281 -219 219 -280 274 -307 274 -4 0 -21 -9 -38 -19z"/>
<path d="M2586 1961 l-99 -100 192 -3 c189 -3 193 -3 212 -27 18 -22 19 -44
19 -426 0 -392 -1 -403 -21 -429 l-20 -26 -647 0 -647 0 -100 -100 -100 -100
937 0 937 0 15 22 c13 18 16 52 16 166 0 79 -4 152 -10 162 -6 10 -33 25 -63
34 -137 40 -219 160 -204 300 7 66 33 120 84 168 38 37 113 77 144 78 9 0 23
8 32 18 14 16 17 43 17 170 0 139 -2 154 -20 172 -19 19 -33 20 -298 20 l-277
0 -99 -99z"/>
<path d="M2065 1444 c-192 -195 -370 -374 -395 -399 l-45 -45 603 2 604 3 19
24 c18 22 19 44 19 375 0 341 -1 353 -20 374 -20 21 -27 22 -228 20 l-207 -1
-350 -353z"/>
</g>
</svg>
